<svg xmlns="http://www.w3.org/2000/svg" viewBox="0 0 2331.96 565.32"><defs><style>.cls-1{fill:#fff;}.cls-2{fill:#00f9ff;}.cls-3{fill:#c729f4;}</style></defs><g id="Layer_2" data-name="Layer 2"><g id="Layer_1-2" data-name="Layer 1"><path class="cls-1" d="M626,109.7A110,110,0,0,0,516.15,0H516a110.29,110.29,0,0,0-73.23,28.1L422,46.59a195.81,195.81,0,0,0-41.91-4.52h-.24l-134.38.16a195.71,195.71,0,0,0-43.14,4.84L182.88,29a107,107,0,0,0-73-28.62h-.13A109.71,109.71,0,0,0,23,177.25l29.55,37.93a198.9,198.9,0,0,0-1.15,21.63l.15,134.39c.13,107.09,87.28,194.12,194.35,194.12h.23l134.39-.16c107.17-.12,194.25-87.41,194.12-194.58l-.16-134.38a198.46,198.46,0,0,0-1.07-20.32l30-39.58A110.94,110.94,0,0,0,626,109.7ZM380.41,499.83,246,500h-.16c-71.07,0-128.94-57.78-129-128.87l-.16-134.39A129.11,129.11,0,0,1,245.56,107.56L380,107.4h.16a129.07,129.07,0,0,1,129,128.87l.16,134.39A129.16,129.16,0,0,1,380.41,499.83Z"/><path class="cls-1" d="M361.9,347.44c-11.32-10.83-29.54-8.86-40.37,2l-8.85,8.86-8.86-8.86c-10.83-10.83-29.05-12.31-40.37-2-12.31,10.83-12.31,30-1,41.35l43.32,43.32a10.1,10.1,0,0,0,14.28,0c11.81-11.82,34.46-34,43.31-43.32h0A27.8,27.8,0,0,0,361.9,347.44Z"/><path class="cls-2" d="M64.71,211.51H148q-23.48,18.33-23.48,52.12,0,32.49,24.77,55.66,24.78,22.84,60.16,22.84,35.72,0,60.49-22.84,24.45-23.18,24.45-55.66,0-33.78-23.49-52.12h19V170H64.71Zm190.61,19.6a25.81,25.81,0,0,1,1.37,38.4h0c-8.23,8.69-29.26,29.26-40.22,40.23a9.38,9.38,0,0,1-13.26,0L163,269.51c-10.51-10.51-10.51-28.34.92-38.4,10.51-9.6,27.43-8.22,37.48,1.83l8.23,8.23,8.23-8.23C227.89,222.89,244.81,221.06,255.32,231.11Z"/><path class="cls-3" d="M270.43,211.51h83.33q-23.47,18.33-23.49,52.12,0,32.49,24.78,55.66,24.78,22.84,60.16,22.84,35.71,0,60.49-22.84,24.45-23.18,24.45-55.66,0-33.78-23.49-52.12h19V170H270.43Zm190.62,19.6a25.82,25.82,0,0,1,1.37,38.4h0c-8.23,8.69-29.26,29.26-40.23,40.23a9.37,9.37,0,0,1-13.25,0l-40.23-40.23c-10.51-10.51-10.51-28.34.91-38.4,10.52-9.6,27.43-8.22,37.49,1.83l8.23,8.23,8.22-8.23C433.62,222.89,450.53,221.06,461.05,231.11Z"/><path class="cls-2" d="M889.67,125.7q32.49,0,55.34,24.77,23.16,24.78,23.16,60.16,0,36-23.16,60.49-22.53,24.45-55.34,24.45-33.78,0-52.12-23.49v83.33h-41.5V130.2h41.5v19Q855.9,125.71,889.67,125.7ZM850.1,243.45Q862.66,256,882,256t31.85-12.55q12.87-12.87,12.87-32.82T913.8,178.14Q901.26,165.27,882,165.27T850.1,178.14q-12.55,12.54-12.55,32.49T850.1,243.45Z"/><path class="cls-2" d="M1119.71,149.18v-19h41.5V291.07h-41.5v-19q-18.68,23.49-52.44,23.49-32.19,0-55.34-24.45-22.86-24.78-22.85-60.49,0-35.38,22.85-60.16,23.16-24.76,55.34-24.77Q1101.05,125.7,1119.71,149.18Zm-76.58,94.27Q1055.69,256,1075,256t31.85-12.55q12.86-12.87,12.87-32.82t-12.87-32.49q-12.55-12.87-31.85-12.87t-31.86,12.87q-12.54,12.54-12.54,32.49T1043.13,243.45Z"/><path class="cls-2" d="M1288.29,125.7q26.7,0,43.43,17.69,17.38,18,17.38,48.9v98.78h-41.51V197.44q0-15.75-8.52-24.45t-23.33-8.69q-16.41,0-25.9,10.14t-9.49,29.76v86.87h-41.5V130.2h41.5v18Q1255.16,125.71,1288.29,125.7Z"/><path class="cls-2" d="M1708.14,149.18v-19h41.51V291.07h-41.51v-19q-18.66,23.49-52.44,23.49-32.17,0-55.34-24.45-22.84-24.78-22.84-60.49,0-35.38,22.84-60.16,23.17-24.76,55.34-24.77Q1689.48,125.7,1708.14,149.18Zm-76.57,94.27Q1644.13,256,1663.42,256t31.86-12.55q12.85-12.87,12.86-32.82t-12.86-32.49q-12.55-12.87-31.86-12.87t-31.85,12.87Q1619,190.68,1619,210.63T1631.57,243.45Z"/><path class="cls-3" d="M1742.55,429.23h-134.8q4.17,21.24,19.62,33.3T1666,474.59q31.86,0,46.33-23.48l23.81,13.51Q1712.3,501,1665.34,501q-38,0-62.42-23.8-23.81-24.45-23.81-60.81,0-36.67,23.49-60.49,23.49-24.12,60.81-24.12,35.38,0,57.59,25.09,22.51,24.45,22.52,59.84A83.68,83.68,0,0,1,1742.55,429.23Zm-79.14-71.1q-22.2,0-37.16,12.54t-18.5,34.11h107.46q-3.56-22.2-17.7-34.43T1663.41,358.13Z"/><path class="cls-3" d="M1793.39,379.36q0,15.45,31.85,24.13a197.68,197.68,0,0,1,20.11,5.31,107.38,107.38,0,0,1,18,8.2,38.25,38.25,0,0,1,15,14.48q5.13,9,5.14,21.24,0,21.87-17,35.06T1823.31,501q-23.16,0-40.06-10.13t-24-27.51l24.12-13.83a34,34,0,0,0,14.48,18.34q10.62,6.75,25.42,6.75,14.48,0,23.16-5.47t8.69-16.4q0-16.41-31.85-23.81-10.62-2.9-16.09-4.51a132,132,0,0,1-15-5.79q-9.49-4.17-14.32-8.85a46.85,46.85,0,0,1-8.84-12.54,37.93,37.93,0,0,1-4-17.54q0-20.91,16.08-34.42,16.41-13.51,40.86-13.51,19.62,0,34.91,8.84a56.71,56.71,0,0,1,23,24.61l-23.48,13.2q-8.68-20.59-34.43-20.6-12.23,0-20.43,5.8A18.3,18.3,0,0,0,1793.39,379.36Z"/><path class="cls-3" d="M1929.16,306.65a18.33,18.33,0,0,1-13.51-5.47,18,18,0,0,1-5.47-13.19,18.48,18.48,0,0,1,5.47-13.35,18.09,18.09,0,0,1,13.51-5.63,17.74,17.74,0,0,1,13.19,5.63,18.53,18.53,0,0,1,5.47,13.35,18.68,18.68,0,0,1-18.66,18.66ZM1943,496.79h-28V335.93h28Z"/><path class="cls-3" d="M2119.3,363.6V335.93H2147V490q0,35.7-24.13,55.33-24.47,19.95-57.92,20-27,0-46.65-10.13a67.63,67.63,0,0,1-29.6-29.12l24.46-13.83q13.18,27,52.44,27,25.09,0,39.41-13.19t14.32-36V467.19q-21.24,32.18-60.49,32.18-34.74,0-58.23-24.46-23.82-24.77-23.81-59.52t23.81-59.19q23.48-24.45,58.23-24.45Q2098.38,331.75,2119.3,363.6Zm0,51.79q0-24.12-16.41-40.53T2062,358.45q-24.45,0-40.86,16.41t-16.41,40.53q0,24.47,16.41,40.86T2062,472.66q24.45,0,40.86-16.41T2119.3,415.39Z"/><path class="cls-3" d="M2269.54,331.75q28.3,0,45.37,17.85T2332,398v98.77h-28V399.63q0-19.31-10.62-30.24t-29.28-10.94q-21.56,0-34.1,13.35t-12.55,39.73v85.26h-28V335.93h28v23.16Q2234.15,331.75,2269.54,331.75Z"/><path class="cls-2" d="M1506.41,65.85v83.33q-18.35-23.48-52.12-23.48-32.51,0-55.66,24.77-22.86,24.78-22.85,60.16,0,35.72,22.85,60.49,23.16,24.45,55.66,24.45,33.78,0,52.12-23.49v19h41.5V65.85ZM1486.8,256.47a25.81,25.81,0,0,1-38.4,1.37h0c-8.69-8.23-29.26-29.26-40.23-40.23a9.39,9.39,0,0,1,0-13.25l40.23-40.23c10.51-10.51,28.34-10.51,38.4.92,9.6,10.51,8.23,27.42-1.83,37.48l-8.22,8.23L1485,219C1495,229,1496.86,246,1486.8,256.47Z"/><path class="cls-3" d="M1506.41,271.58v83.33q-18.35-23.48-52.12-23.49-32.51,0-55.66,24.78-22.86,24.78-22.85,60.16,0,35.72,22.85,60.49,23.16,24.45,55.66,24.45,33.78,0,52.12-23.49v19h41.5V271.58ZM1486.8,462.2a25.82,25.82,0,0,1-38.4,1.37h0c-8.69-8.23-29.26-29.26-40.23-40.23a9.39,9.39,0,0,1,0-13.25l40.23-40.23c10.51-10.52,28.34-10.52,38.4.91,9.6,10.52,8.23,27.43-1.83,37.49l-8.22,8.23,8.22,8.22C1495,434.77,1496.86,451.68,1486.8,462.2Z"/></g></g></svg>